# xmcd CD database file
#
# Track frame offsets:
#	150
#	19502
#	43166
#	62177
#	80371
#	97370
#	108971
#	127873
#	149893
#	166902
#
# Disc length: 2465 seconds
#
# Revision: 1
# Processed by: cddbd v1.5.2PL0 Copyright (c) Steve Scherf et al.
# Submitted via: CDex 1.70beta3
#
DISCID=89099f0a
DTITLE=Giza Jazz - GIZA Jazz compilation vol.1
DYEAR=2008
DGENRE=Jazz
TTITLE0=Lullaby of Birdland (森川七月)
TTITLE1=Your song (森川七月)
TTITLE2=Wave (小泉ニロ)
TTITLE3=Agua de beber (小泉ニロ)
TTITLE4=Smile (早川えみ)
TTITLE5=Avalon (早川えみ)
TTITLE6=All the things you are (中島紅音)
TTITLE7=Over the rainbow (中島紅音)
TTITLE8=Autumn Leaves (森田葉月&森川七月)
TTITLE9=Amazing Grace (森田葉月&森川七月)
EXTD=YEAR: 2008
EXTT0=
EXTT1=
EXTT2=
EXTT3=
EXTT4=
EXTT5=
EXTT6=
EXTT7=
EXTT8=
EXTT9=
PLAYORDER=
